Coordinates
version=1
nRows=13
nColumns=38
inDegrees=no

Units are S.I. units (second, meters, Newtons, ...)
If the header above contains a line with 'inDegrees', this indicates whether rotational values are in degrees (yes) or radians (no).

endheader
time	pelvis_tilt	pelvis_list	pelvis_rotation	pelvis_tx	pelvis_ty	pelvis_tz	hip_flexion_r	hip_adduction_r	hip_rotation_r	knee_angle_r	ankle_angle_r	subtalar_angle_r	mtp_angle_r	hip_flexion_l	hip_adduction_l	hip_rotation_l	knee_angle_l	ankle_angle_l	subtalar_angle_l	mtp_angle_l	lumbar_extension	lumbar_bending	lumbar_rotation	arm_flex_r	arm_add_r	arm_rot_r	elbow_flex_r	pro_sup_r	wrist_flex_r	wrist_dev_r	arm_flex_l	arm_add_l	arm_rot_l	elbow_flex_l	pro_sup_l	wrist_flex_l	wrist_dev_l
1.43	-0.0650861	1.34267	-1.43283	0.809299	0.382039	0.933682	-0.472711	-0.00924534	-0.343115	0.513597	-0.151726	0	0	0.0874072	-0.0809052	-0.462818	0.460955	-0.253009	0	0	-0.380051	-0.0335971	-0.14535	-0.073329	-0.408388	0.486409	0.747182	0.899553	0	0	-0.41523	-0.344413	-0.15491	0.9368	1.5708	0	0
1.44	-0.0547832	1.34344	-1.43802	0.811321	0.37024	0.934455	-0.455932	-0.0217535	-0.337144	0.568723	-0.178483	0	0	0.0805447	-0.0764676	-0.453507	0.467274	-0.256341	0	0	-0.377187	-0.0347013	-0.149569	-0.0763286	-0.411045	0.488864	0.744854	0.895376	0	0	-0.416015	-0.343468	-0.159822	0.934774	1.5708	0	0
1.45	-0.0420168	1.34427	-1.44506	0.813395	0.358669	0.935393	-0.435672	-0.0353135	-0.329039	0.627431	-0.212307	0	0	0.0719757	-0.0706832	-0.444285	0.470491	-0.253044	0	0	-0.374372	-0.0360687	-0.154755	-0.0781106	-0.413141	0.492406	0.741194	0.89094	0	0	-0.416064	-0.342928	-0.163933	0.932496	1.5708	0	0
1.46	-0.0367351	1.35339	-1.44849	0.815064	0.347674	0.936098	-0.416609	-0.0453415	-0.227876	0.661352	-0.246295	0	0	0.0717591	-0.0648632	-0.43403	0.471707	-0.24524	0	0	-0.366518	-0.0381185	-0.145128	-0.116184	-0.365231	0.329889	0.729702	1.072	0	0	-0.403758	-0.350064	-0.148069	0.925424	1.56709	0	0
1.47	-0.0125512	1.35076	-1.46604	0.816938	0.336543	0.937342	-0.389873	-0.0606733	-0.244678	0.730351	-0.305368	0	0	0.0561451	-0.0570986	-0.427957	0.471177	-0.236243	0	0	-0.366377	-0.0414823	-0.159936	-0.0940063	-0.394753	0.431491	0.727502	0.960819	0	0	-0.410684	-0.346612	-0.16368	0.927964	1.5708	0	0
1.48	0.0195057	1.34431	-1.48986	0.818903	0.325339	0.938755	-0.358694	-0.0816679	-0.31256	0.808844	-0.364525	0	0	0.0343634	-0.0482056	-0.42593	0.468436	-0.228805	0	0	-0.372257	-0.0459241	-0.169281	-0.0995586	-0.393786	0.420855	0.730871	0.971315	0	0	-0.413189	-0.350623	-0.165195	0.934561	1.5708	0	0
1.49	0.0412269	1.34157	-1.50725	0.820507	0.314778	0.939915	-0.330221	-0.0977262	-0.315151	0.870039	-0.388931	0	0	0.0167755	-0.0417309	-0.425732	0.465467	-0.223174	0	0	-0.374834	-0.0491122	-0.175286	-0.10142	-0.396078	0.419785	0.734273	0.971017	0	0	-0.412782	-0.353403	-0.166952	0.93946	1.5708	0	0
1.5	0.0548522	1.33807	-1.51652	0.82208	0.304476	0.941078	-0.301894	-0.110938	-0.314294	0.927081	-0.421694	0	0	-0.00160415	-0.0379296	-0.425281	0.462308	-0.215976	0	0	-0.37827	-0.0501757	-0.18212	-0.100811	-0.400775	0.425482	0.73852	0.963965	0	0	-0.412953	-0.356252	-0.168039	0.945584	1.5708	0	0
1.51	0.0617004	1.33659	-1.51994	0.82344	0.294356	0.941995	-0.269924	-0.121655	-0.310711	0.981852	-0.453156	0	0	-0.0171187	-0.0362881	-0.424421	0.45952	-0.208518	0	0	-0.379877	-0.0498878	-0.188303	-0.0998584	-0.405675	0.430806	0.743343	0.957095	0	0	-0.413041	-0.359061	-0.17002	0.953526	1.5708	0	0
1.52	0.059293	1.33526	-1.51485	0.824638	0.28447	0.942949	-0.237166	-0.129536	-0.305461	1.03424	-0.481288	0	0	-0.0317251	-0.0373161	-0.422981	0.456253	-0.202131	0	0	-0.381646	-0.0472923	-0.193953	-0.0975569	-0.410874	0.436631	0.748035	0.950782	0	0	-0.411693	-0.360921	-0.173321	0.961225	1.56946	0	0
1.53	0.0489468	1.33287	-1.50253	0.825672	0.274916	0.944126	-0.205041	-0.134668	-0.298972	1.08366	-0.49567	0	0	-0.0470755	-0.0405381	-0.420441	0.451258	-0.197535	0	0	-0.384866	-0.0427166	-0.198905	-0.0934858	-0.416158	0.443276	0.752101	0.94466	0	0	-0.408869	-0.362963	-0.175199	0.967896	1.56831	0	0
1.54	0.0328489	1.32991	-1.48465	0.82657	0.26556	0.945506	-0.1745	-0.137257	-0.292321	1.12828	-0.488016	0	0	-0.0627232	-0.0456042	-0.417982	0.445538	-0.194459	0	0	-0.388726	-0.0366375	-0.203276	-0.0881279	-0.421161	0.450745	0.754866	0.938612	0	0	-0.404606	-0.365707	-0.175067	0.973616	1.57001	0	0
1.55	0.0143772	1.3292	-1.46409	0.827371	0.256172	0.946904	-0.143874	-0.138621	-0.286835	1.16781	-0.446925	0	0	-0.0761436	-0.050975	-0.414535	0.439262	-0.190683	0	0	-0.391863	-0.0301848	-0.198425	-0.113397	-0.38765	0.331188	0.754256	1.07411	0	0	-0.391608	-0.377642	-0.154012	0.977574	1.56095	0	0
